<mxfile host="app.diagrams.net" agent="Mozilla/5.0(Windows NT 10.0; Win64; x64) AppleWebKit/537.36(KHTML, like Gecko) Chrome/126.0.0.0 Safari/537.36" version="24.9.0">
  <diagram name="페이지-1" id="Xuzn_ow1ch6PsS_vmeq6">
    <mxGraphModel dx="1195" dy="615" grid="1" gridSize="10" guides="1" tooltips="1" connect="1" arrows="1" fold="1" page="1" pageScale="1" pageWidth="827" pageHeight="1169" math="0" shadow="0">
      <root>
        <mxCell id="0" />
        <mxCell id="1" parent="0" />
        <mxCell id="D9X2P_hMRxVEJDyeESgn-5" value="" style="group" parent="1" vertex="1" connectable="0">
          <mxGeometry x="414" y="30" width="340" height="260" as="geometry" />
        </mxCell>
        <mxCell id="D9X2P_hMRxVEJDyeESgn-2" value="" style="shape=internalStorage;whiteSpace=wrap;html=1;backgroundOutline=1;dx=50;dy=50;" parent="D9X2P_hMRxVEJDyeESgn-5" vertex="1">
          <mxGeometry y="60" width="340" height="200" as="geometry" />
        </mxCell>
        <mxCell id="D9X2P_hMRxVEJDyeESgn-3" value="" style="rounded=0;whiteSpace=wrap;html=1;" parent="D9X2P_hMRxVEJDyeESgn-5" vertex="1">
          <mxGeometry width="340" height="60" as="geometry" />
        </mxCell>
        <mxCell id="D9X2P_hMRxVEJDyeESgn-6" value="" style="group" parent="1" vertex="1" connectable="0">
          <mxGeometry x="40" y="310" width="270" height="345.26" as="geometry" />
        </mxCell>
        <mxCell id="D9X2P_hMRxVEJDyeESgn-1" value="" style="shape=internalStorage;whiteSpace=wrap;html=1;backgroundOutline=1;dx=60;dy=60;" parent="D9X2P_hMRxVEJDyeESgn-6" vertex="1">
          <mxGeometry y="85.25999999999999" width="270" height="260" as="geometry" />
        </mxCell>
        <mxCell id="D9X2P_hMRxVEJDyeESgn-4" value="&lt;font style=&quot;font-size: 32px;&quot;&gt;가수&lt;/font&gt;" style="rounded=0;whiteSpace=wrap;html=1;" parent="D9X2P_hMRxVEJDyeESgn-6" vertex="1">
          <mxGeometry width="270" height="85.26" as="geometry" />
        </mxCell>
      </root>
    </mxGraphModel>
  </diagram>
</mxfile>
